<?xml version="1.0" standalone="no"?>
<!DOCTYPE svg PUBLIC "-//W3C//DTD SVG 20010904//EN"
 "http://www.w3.org/TR/2001/REC-SVG-20010904/DTD/svg10.dtd">
<svg version="1.0" xmlns="http://www.w3.org/2000/svg"
 width="560.000000pt" height="560.000000pt" viewBox="0 0 560.000000 560.000000"
 preserveAspectRatio="xMidYMid meet">
<metadata>
Created by potrace 1.14, written by Peter Selinger 2001-2017
</metadata>
<g transform="translate(0.000000,560.000000) scale(0.100000,-0.100000)"
fill="#000000" stroke="none">
<path d="M2315 5449 c-396 -20 -954 -89 -1091 -135 -440 -147 -788 -494 -932
-929 -30 -90 -64 -306 -96 -610 -80 -747 -67 -1524 39 -2265 46 -317 137 -528
330 -759 167 -201 440 -382 683 -452 134 -39 533 -90 952 -121 111 -8 339 -13
625 -12 473 1 743 17 1115 65 355 46 435 66 620 159 354 178 610 472 735 844
51 153 109 621 136 1096 13 234 7 940 -10 1145 -36 433 -83 778 -122 900 -121
376 -404 697 -764 869 -175 84 -259 103 -650 150 -496 59 -1088 80 -1570 55z
m-564 -1513 c128 -52 381 -248 584 -451 215 -214 407 -467 440 -578 30 -101
12 -206 -52 -307 -212 -331 -567 -684 -880 -873 -171 -103 -340 -97 -483 17
-135 108 -181 295 -112 449 37 80 77 122 193 199 63 41 148 102 189 135 87 71
280 265 280 282 0 18 -145 166 -241 246 -48 40 -133 105 -190 145 -140 99
-192 150 -225 224 -73 162 -24 358 115 460 72 53 140 74 241 75 67 0 97 -4
141 -23z m2465 -1654 c95 -43 146 -120 147 -222 0 -94 -51 -167 -148 -212
l-50 -23 -585 0 -585 0 -55 26 c-100 47 -144 113 -144 214 1 113 64 191 189
231 31 10 170 13 610 11 l570 -2 51 -23z"/>
</g>
</svg>
