<?xml version="1.0" standalone="no"?>
<!DOCTYPE svg PUBLIC "-//W3C//DTD SVG 20010904//EN"
 "http://www.w3.org/TR/2001/REC-SVG-20010904/DTD/svg10.dtd">
<svg version="1.0" xmlns="http://www.w3.org/2000/svg"
 width="560.000000pt" height="560.000000pt" viewBox="0 0 560.000000 560.000000"
 preserveAspectRatio="xMidYMid meet">
<metadata>
Created by potrace 1.14, written by Peter Selinger 2001-2017
</metadata>
<g transform="translate(0.000000,560.000000) scale(0.100000,-0.100000)"
fill="#000000" stroke="none">
<path d="M2639 5476 c-2 -2 -42 -6 -89 -9 -47 -4 -107 -11 -135 -16 -27 -5
-70 -12 -95 -16 -50 -7 -176 -37 -260 -61 -30 -9 -61 -16 -67 -17 -7 0 -13 -4
-13 -9 0 -5 -4 -7 -9 -4 -4 3 -24 -3 -44 -13 -20 -10 -34 -15 -32 -11 14 23
-342 -145 -457 -215 -9 -5 -40 -24 -70 -42 -57 -34 -224 -158 -298 -220 -54
-46 -270 -258 -270 -266 0 -3 -12 -18 -28 -34 -139 -145 -339 -469 -442 -718
-30 -71 -72 -195 -98 -285 -28 -98 -35 -125 -47 -190 -3 -14 -7 -36 -10 -50
-3 -14 -8 -42 -11 -64 -3 -21 -7 -48 -9 -59 -14 -67 -19 -189 -18 -382 0 -182
6 -320 13 -320 1 0 3 -16 5 -35 3 -35 12 -94 21 -140 2 -14 6 -35 9 -48 2 -13
7 -32 10 -42 3 -10 7 -27 9 -37 21 -102 101 -337 160 -466 13 -29 26 -59 30
-67 11 -28 111 -205 151 -269 45 -71 179 -253 228 -309 67 -78 286 -289 343
-331 32 -25 64 -50 69 -55 19 -20 204 -146 260 -177 93 -52 323 -162 405 -194
86 -34 183 -65 245 -78 6 -2 16 -6 23 -10 6 -5 12 -6 12 -3 0 2 15 0 33 -5 44
-14 59 -17 162 -35 97 -18 102 -18 215 -31 138 -15 526 -8 626 11 12 3 39 7
60 10 22 3 50 8 64 11 30 6 60 13 120 25 25 5 75 18 113 29 37 11 68 20 70 20
1 0 15 4 30 10 16 6 33 11 39 11 5 0 24 6 41 14 18 7 64 26 102 41 154 62 482
240 515 280 7 8 19 15 26 15 8 0 14 3 14 8 0 4 17 18 37 32 120 81 338 287
468 445 166 200 331 478 415 698 12 28 25 61 30 72 11 26 69 205 74 231 2 10
11 46 19 79 18 68 21 84 37 192 6 43 13 89 16 103 27 153 21 525 -11 725 -2
11 -6 38 -9 60 -4 22 -9 52 -12 67 -3 15 -5 30 -5 33 0 2 -5 19 -10 37 -5 18
-12 46 -15 62 -2 16 -26 94 -53 175 -70 212 -178 442 -273 583 -21 31 -38 61
-38 67 0 5 -4 11 -8 13 -5 2 -23 26 -42 53 -19 28 -39 55 -45 62 -11 13 -12
15 -65 83 -78 99 -245 266 -365 365 -94 77 -240 185 -250 185 -2 0 -23 13 -47
29 -68 45 -234 133 -338 178 -113 49 -294 113 -321 113 -10 0 -19 4 -19 8 0 4
-8 9 -17 10 -10 1 -25 3 -33 5 -8 3 -34 8 -58 12 -23 4 -45 12 -48 16 -3 5 -9
7 -13 5 -4 -3 -36 1 -72 8 -35 8 -93 17 -129 21 -36 4 -76 10 -90 12 -33 5
-426 14 -431 9z m386 -620 c265 -32 448 -86 680 -201 159 -78 269 -147 393
-248 90 -73 230 -211 287 -282 21 -27 44 -54 50 -60 43 -39 241 -376 228 -388
-3 -4 -2 -7 4 -7 10 0 60 -121 97 -232 115 -350 131 -749 44 -1108 -13 -57
-62 -215 -79 -255 -7 -16 -13 -35 -14 -41 -4 -18 -111 -234 -141 -284 -108
-184 -293 -399 -449 -525 -33 -26 -62 -51 -65 -55 -9 -13 -185 -127 -240 -156
-30 -16 -57 -31 -60 -35 -5 -5 -41 -22 -130 -61 -281 -124 -519 -173 -830
-172 -153 0 -261 8 -322 23 -20 5 -39 6 -42 3 -3 -2 -12 0 -19 6 -8 7 -16 10
-19 7 -2 -3 -40 4 -84 16 -43 11 -86 22 -94 24 -26 6 -156 52 -197 70 -327
143 -549 303 -793 575 -153 171 -333 499 -397 725 -39 137 -55 209 -68 295 -3
19 -8 51 -11 70 -3 19 -7 114 -9 210 -3 157 6 275 30 415 11 67 84 326 95 335
3 3 6 14 8 25 2 11 10 30 18 43 8 12 12 22 9 22 -10 0 121 247 171 321 158
238 361 442 587 591 40 26 77 51 83 56 6 5 20 13 32 16 12 4 22 12 22 18 0 6
3 9 6 6 3 -4 34 9 69 28 105 55 317 138 385 151 14 2 50 10 80 18 72 18 261
46 271 40 4 -3 10 -2 13 3 5 9 323 7 401 -2z"/>
<path d="M2753 4608 c-2 -5 -11 -8 -20 -8 -22 0 -91 -57 -108 -90 -18 -35 -25
-75 -30 -170 -2 -41 -7 -106 -9 -145 -3 -38 -8 -113 -11 -165 -4 -52 -8 -120
-10 -150 -2 -30 -6 -102 -10 -160 -3 -58 -7 -130 -10 -160 -2 -30 -7 -100 -11
-155 -3 -55 -8 -122 -10 -150 -1 -27 -6 -105 -9 -171 -4 -67 -8 -130 -10 -140
-2 -11 -4 -22 -4 -25 -1 -6 -41 -34 -214 -148 -59 -39 -110 -71 -113 -71 -3 0
-10 -5 -17 -11 -7 -6 -77 -53 -156 -105 -79 -51 -152 -102 -161 -112 -49 -52
-61 -162 -26 -230 36 -69 135 -119 208 -105 34 6 180 77 529 255 184 94 214
106 270 110 113 9 211 75 260 176 25 53 29 131 15 327 -4 61 -9 139 -11 175
-2 36 -6 101 -9 145 -6 81 -11 154 -21 320 -3 50 -7 117 -10 150 -2 33 -7 107
-10 165 -3 58 -8 128 -10 155 -3 28 -7 95 -10 150 -3 55 -8 121 -10 147 -8 87
-48 149 -119 182 -39 18 -124 27 -133 14z"/>
<path d="M1914 4376 c-57 -27 -77 -47 -99 -101 -73 -174 110 -345 277 -259 41
21 88 69 88 89 0 8 4 15 8 15 5 0 9 7 10 15 10 97 -6 154 -58 205 -61 59 -147
73 -226 36z"/>
<path d="M3542 4389 c-43 -13 -114 -84 -128 -129 -60 -198 165 -349 323 -216
35 30 65 86 70 135 8 71 -45 164 -112 199 -31 16 -116 22 -153 11z"/>
<path d="M1347 3798 c-10 -5 -17 -6 -17 -3 0 3 -6 1 -12 -5 -7 -5 -25 -19 -39
-30 -50 -37 -76 -117 -64 -196 14 -96 132 -174 232 -155 133 26 209 174 149
289 -18 34 -95 104 -107 97 -4 -3 -10 -1 -13 4 -7 11 -108 11 -129 -1z"/>
<path d="M4126 3803 c-10 -3 -24 -9 -30 -14 -6 -5 -23 -18 -38 -29 -37 -28
-71 -104 -70 -154 2 -53 36 -125 74 -155 131 -105 329 -17 330 147 0 94 -37
155 -117 194 -29 15 -111 21 -149 11z"/>
<path d="M1130 2998 c-102 -38 -157 -155 -123 -258 27 -80 87 -126 177 -135
49 -5 64 -2 106 21 58 31 97 83 106 139 3 22 6 42 7 45 0 3 -3 21 -7 40 -14
59 -62 118 -116 142 -33 15 -118 18 -150 6z"/>
<path d="M4341 2998 c-30 -11 -83 -55 -118 -101 -19 -24 -22 -105 -7 -156 13
-45 53 -91 102 -119 34 -19 109 -24 154 -10 44 13 104 71 125 119 39 92 -6
207 -101 256 -38 20 -112 25 -155 11z"/>
<path d="M1352 2196 c-119 -41 -176 -182 -116 -291 25 -47 90 -96 128 -98 14
-1 26 -5 26 -9 0 -4 13 -3 29 2 16 4 31 6 34 4 2 -2 20 2 39 10 76 32 129 120
123 203 -3 45 -33 109 -61 134 -54 48 -138 66 -202 45z"/>
<path d="M4155 2203 c-65 -13 -134 -72 -154 -132 -27 -81 0 -178 63 -226 32
-24 120 -57 129 -48 3 2 19 6 35 8 68 9 138 70 159 139 43 139 -90 287 -232
259z"/>
<path d="M1924 1600 c-45 -20 -74 -44 -98 -81 -52 -81 -28 -207 51 -265 103
-76 247 -41 307 74 16 31 27 132 14 132 -4 0 -7 3 -6 8 3 17 -25 69 -50 90
-66 58 -149 74 -218 42z"/>
<path d="M3555 1611 c-93 -23 -159 -114 -151 -208 6 -75 44 -136 103 -166 145
-75 311 36 298 199 -9 116 -135 204 -250 175z"/>
<path d="M2785 1402 c-84 -15 -138 -54 -166 -119 -23 -54 -25 -86 -10 -140 24
-86 104 -145 196 -145 101 0 179 70 199 178 13 70 -47 180 -114 206 -39 16
-83 24 -105 20z"/>
</g>
</svg>
