<svg xmlns="http://www.w3.org/2000/svg" version="1.1" xmlns:xlink="http://www.w3.org/1999/xlink" xmlns:svgjs="http://svgjs.dev/svgjs" width="1500" height="234" viewBox="0 0 1500 234"><g transform="matrix(1,0,0,1,-0.9090909090909918,-0.8303454205124439)"><svg viewBox="0 0 396 62" data-background-color="#b19dd0" preserveAspectRatio="xMidYMid meet" height="234" width="1500" xmlns="http://www.w3.org/2000/svg" xmlns:xlink="http://www.w3.org/1999/xlink"><g id="tight-bounds" transform="matrix(1,0,0,1,0.2400000000000091,0.22000605158876851)"><svg viewBox="0 0 395.52 61.55998789682248" height="61.55998789682248" width="395.52"><g><svg viewBox="0 0 506.3993108058947 78.81759568206442" height="61.55998789682248" width="395.52"><g><rect width="5.143163616763613" height="68.43785442726288" x="408.9837791014754" y="5.189870627400772" fill="#000000" opacity="1" stroke-width="0" stroke="transparent" fill-opacity="1" class="rect-qz-0" data-fill-palette-color="primary" rx="1%" id="qz-0" data-palette-color="#000000"></rect></g><g transform="matrix(1,0,0,1,0,10.893025163006012)"><svg viewBox="0 0 395.52 57.0315453560524" height="57.0315453560524" width="395.52"><g id="textblocktransform"><svg viewBox="0 0 395.52 57.0315453560524" height="57.0315453560524" width="395.52" id="textblock"><g><svg viewBox="0 0 395.52 57.0315453560524" height="57.0315453560524" width="395.52"><g transform="matrix(1,0,0,1,0,0)"><svg width="395.52" viewBox="1.95 -35.16 247.86 35.75" height="57.0315453560524" data-palette-color="#000000"><path d="M1.95-31.35L1.95-35.11 28.25-35.11 28.25-31.35 17.46-31.35 17.46 0 12.87 0 12.87-31.35 1.95-31.35ZM52.07-4.71L53.29-1.42Q50.58-0.34 48.2 0.12 45.82 0.59 43.94 0.59L43.94 0.59Q41.06 0.59 38.91-0.33 36.77-1.25 35.34-2.91 33.91-4.57 33.19-6.87 32.47-9.18 32.47-11.96L32.47-11.96Q32.47-13.67 32.71-15.38 32.96-17.09 33.49-18.64 34.03-20.19 34.9-21.53 35.76-22.88 37.01-23.85 38.25-24.83 39.91-25.39 41.57-25.95 43.7-25.95L43.7-25.95Q49.14-25.95 51.9-22.55 54.66-19.14 54.66-12.79L54.66-12.79 54.66-11.45 36.79-11.45Q36.79-9.4 37.23-7.82 37.67-6.25 38.58-5.16 39.5-4.08 40.9-3.52 42.31-2.95 44.24-2.95L44.24-2.95Q45.31-2.95 46.37-3.11 47.43-3.27 48.44-3.53 49.44-3.78 50.35-4.1 51.27-4.42 52.07-4.71L52.07-4.71ZM36.91-14.82L50.44-14.82Q50.24-18.77 48.54-20.59 46.85-22.41 43.7-22.41L43.7-22.41Q40.55-22.41 38.9-20.59 37.25-18.77 36.91-14.82L36.91-14.82ZM62.69-20.9L62.69-20.9 61.62-24.32Q65.72-25.95 70.21-25.95L70.21-25.95Q74.14-25.95 76.22-24.63L76.22-24.63Q78.58-23.12 78.58-19.48L78.58-19.48 78.58-9.5Q78.58-7.5 78.63-5.4L78.63-5.4Q78.66-4.15 78.88-2.81L78.88-2.81Q79.07-1.54 79.39-0.39L79.39-0.39 75.39 0.49Q74.82-1.15 74.68-3.17L74.68-3.17 74.19-3.22Q71.16 0.59 66.47 0.59L66.47 0.59Q63.06 0.59 60.98-1.31 58.91-3.2 58.91-6.64L58.91-6.64Q58.91-9.2 60.04-10.84 61.18-12.48 63.25-13.6L63.25-13.6Q66.52-15.38 72.41-15.38L72.41-15.38Q73.19-15.38 74.51-15.33L74.51-15.33 74.51-19.04Q74.51-20.8 73.43-21.58 72.36-22.36 70.06-22.36L70.06-22.36Q66.72-22.36 62.69-20.9ZM74.51-7.13L74.51-7.13 74.51-12.26Q73.85-12.3 72.58-12.3L72.58-12.3Q70.43-12.3 68.62-11.94L68.62-11.94Q65.94-11.4 64.46-10.24 62.98-9.08 62.98-6.91L62.98-6.91Q62.98-3 67.23-3L67.23-3Q69.43-3 71.33-4.17L71.33-4.17Q72.9-5.15 74.51-7.13ZM90.81 0L86.61 0 86.61-15.7Q86.61-19.46 86.44-21.36L86.44-21.36Q86.35-22.85 85.81-25L85.81-25 89.81-25.9Q90.28-24.44 90.47-23.07L90.47-23.07Q90.57-22.56 90.72-20.41L90.72-20.41 91.23-20.41Q92.47-22.9 94.35-24.32L94.35-24.32Q96.38-25.95 98.97-25.95L98.97-25.95Q100.43-25.95 101.8-25.43 103.17-24.9 104.09-23.95L104.09-23.95Q105.49-22.58 106.07-19.9L106.07-19.9 106.36-19.9Q107.83-22.73 109.81-24.24L109.81-24.24Q111.93-25.95 114.57-25.95L114.57-25.95Q117.77-25.95 119.47-24.17L119.47-24.17Q120.96-22.68 121.57-19.63L121.57-19.63Q122.01-17.41 122.01-13.43L122.01-13.43 122.01 0 117.81 0 117.81-14.6Q117.81-16.53 117.6-17.77L117.6-17.77Q117.25-19.7 116.37-20.78L116.37-20.78Q115.28-22.07 113.3-22.07L113.3-22.07Q111.05-22.07 109.15-19.92L109.15-19.92Q108-18.63 106.41-15.92L106.41-15.92Q106.46-15.5 106.46-14.7L106.46-14.7 106.46 0 102.26 0 102.26-14.6Q102.26-17.7 101.65-19.36L101.65-19.36Q100.63-22.07 97.77-22.07L97.77-22.07Q95.57-22.07 93.6-19.87L93.6-19.87Q92.45-18.6 90.81-15.65L90.81-15.65 90.81 0ZM126.97-31.35L126.97-35.11 153.26-35.11 153.26-31.35 142.47-31.35 142.47 0 137.88 0 137.88-31.35 126.97-31.35ZM163.66-19.51L163.88-19.51Q164.64-21.02 165.5-22.24 166.37-23.46 167.42-24.32L167.42-24.32Q168.37-25.15 169.52-25.55 170.67-25.95 172.13-25.95L172.13-25.95Q172.62-25.95 173.27-25.9 173.91-25.85 174.5-25.73L174.5-25.73Q174.4-24.51 174.27-23.44 174.13-22.36 173.91-21.26L173.91-21.26Q172.69-21.48 171.68-21.58 170.67-21.68 169.76-21.53L169.76-21.53Q168.69-21.34 167.9-20.81 167.1-20.29 166.43-19.42 165.76-18.55 165.12-17.35 164.49-16.14 163.73-14.58L163.73-14.58 163.73 0 159.53 0 159.53-15.65Q159.53-17.19 159.5-18.36 159.46-19.53 159.35-20.59 159.24-21.66 159.02-22.69 158.8-23.73 158.43-25L158.43-25Q159.46-25.27 160.45-25.49 161.44-25.71 162.46-25.9L162.46-25.9Q162.8-24.93 163.01-24.17 163.22-23.41 163.34-22.69 163.46-21.97 163.53-21.23 163.59-20.48 163.66-19.51L163.66-19.51ZM181.14-20.9L181.14-20.9 180.06-24.32Q184.16-25.95 188.66-25.95L188.66-25.95Q192.59-25.95 194.66-24.63L194.66-24.63Q197.03-23.12 197.03-19.48L197.03-19.48 197.03-9.5Q197.03-7.5 197.08-5.4L197.08-5.4Q197.1-4.15 197.32-2.81L197.32-2.81Q197.52-1.54 197.84-0.39L197.84-0.39 193.83 0.49Q193.27-1.15 193.12-3.17L193.12-3.17 192.64-3.22Q189.61 0.59 184.92 0.59L184.92 0.59Q181.5 0.59 179.43-1.31 177.35-3.2 177.35-6.64L177.35-6.64Q177.35-9.2 178.49-10.84 179.62-12.48 181.7-13.6L181.7-13.6Q184.97-15.38 190.85-15.38L190.85-15.38Q191.64-15.38 192.95-15.33L192.95-15.33 192.95-19.04Q192.95-20.8 191.88-21.58 190.81-22.36 188.51-22.36L188.51-22.36Q185.17-22.36 181.14-20.9ZM192.95-7.13L192.95-7.13 192.95-12.26Q192.29-12.3 191.03-12.3L191.03-12.3Q188.88-12.3 187.07-11.94L187.07-11.94Q184.38-11.4 182.91-10.24 181.43-9.08 181.43-6.91L181.43-6.91Q181.43-3 185.68-3L185.68-3Q187.88-3 189.78-4.17L189.78-4.17Q191.34-5.15 192.95-7.13ZM221.76-4.32L222.81-0.9Q220.91-0.24 218.74 0.17 216.58 0.59 214.66 0.59L214.66 0.59Q211.73 0.59 209.58-0.27 207.43-1.12 206.02-2.76 204.62-4.39 203.94-6.77 203.25-9.16 203.25-12.21L203.25-12.21Q203.25-15.53 204.1-18.09 204.94-20.65 206.54-22.4 208.14-24.15 210.44-25.05 212.75-25.95 215.68-25.95L215.68-25.95Q217.17-25.95 218.71-25.65 220.25-25.34 221.83-24.88L221.83-24.88 220.78-21.46Q219.51-21.88 218.43-22.12 217.34-22.36 216.14-22.36L216.14-22.36Q211.99-22.36 209.75-19.96 207.5-17.55 207.5-12.7L207.5-12.7Q207.5-10.42 207.83-8.63 208.16-6.84 209-5.58 209.85-4.32 211.3-3.66 212.75-3 215-3L215-3Q216.46-3 218.16-3.38 219.86-3.76 221.76-4.32L221.76-4.32ZM228.84 0L228.84-35.16 233.04-35.16 233.04-14.01 244.46-25.95 247.22-23.27 237.33-13.09 249.81 0 244.58 0 233.04-12.21 233.04 0 228.84 0Z" opacity="1" transform="matrix(1,0,0,1,0,0)" fill="#000000" class="wordmark-text-0" data-fill-palette-color="primary" id="text-0"></path></svg></g></svg></g></svg></g></svg></g><g transform="matrix(1,0,0,1,427.5907218197145,0)"><svg viewBox="0 0 78.80858898618028 78.81759568206442" height="78.81759568206442" width="78.80858898618028"><g><svg xmlns="http://www.w3.org/2000/svg" xmlns:xlink="http://www.w3.org/1999/xlink" version="1.1" x="0" y="0" viewBox="2.875 2.874 26.25 26.253" enable-background="new 0 0 32 32" xml:space="preserve" height="78.81759568206442" width="78.80858898618028" class="icon-icon-0" data-fill-palette-color="accent" id="icon-0"><path d="M16 2.874C8.751 2.875 2.876 8.75 2.875 16 2.876 23.248 8.751 29.123 16 29.127 23.25 29.123 29.125 23.248 29.125 16 29.125 8.75 23.25 2.875 16 2.874zM16 26.123C10.41 26.115 5.885 21.59 5.875 16 5.885 10.409 10.41 5.883 16 5.874c5.589 0.01 10.115 4.535 10.125 10.125C26.115 21.59 21.592 26.115 16 26.123zM9.125 16C9.125 15.448 8.677 15 8.125 15c-0.553 0-1 0.448-1 1 0 0.553 0.449 1 1 1C8.676 17 9.125 16.552 9.125 16zM8.68 19.072c-0.478 0.277-0.642 0.889-0.365 1.367 0.275 0.479 0.889 0.641 1.365 0.365 0.479-0.275 0.643-0.896 0.367-1.367C9.771 18.961 9.159 18.797 8.68 19.072zM9.681 11.195c-0.479-0.276-1.09-0.112-1.366 0.366s-0.111 1.09 0.365 1.366c0.479 0.276 1.09 0.113 1.367-0.366C10.321 12.083 10.158 11.473 9.681 11.195zM23.322 12.927c0.479-0.275 0.643-0.888 0.365-1.366-0.273-0.478-0.896-0.642-1.365-0.366-0.479 0.278-0.643 0.89-0.365 1.367C22.232 13.04 22.844 13.205 23.322 12.927zM12.562 21.955c-0.478-0.275-1.089-0.111-1.366 0.367-0.275 0.479-0.111 1.09 0.366 1.365 0.478 0.27 1.091 0.104 1.365-0.365C13.205 22.844 13.041 22.232 12.562 21.955zM12.562 10.044c0.479-0.276 0.642-0.888 0.366-1.366-0.276-0.478-0.888-0.642-1.366-0.366s-0.642 0.888-0.366 1.366C11.474 10.158 12.084 10.322 12.562 10.044zM23.324 19.072c-0.48-0.275-1.094-0.111-1.367 0.365-0.275 0.479-0.113 1.092 0.367 1.367 0.477 0.27 1.088 0.104 1.363-0.365C23.965 19.961 23.801 19.348 23.324 19.072zM20.438 8.312c-0.477-0.276-1.09-0.111-1.354 0.366-0.271 0.48-0.107 1.091 0.355 1.367 0.479 0.276 1.088 0.112 1.365-0.366S20.918 8.588 20.438 8.312zM23.879 15c-0.555 0.002-1.002 0.45-1.002 1 0.002 0.552 0.449 1 1.002 1 0.551 0 1-0.447 1-1C24.879 15.449 24.43 15 23.879 15zM16.001 7.124c-0.552 0-1 0.448-1 1l-0.466 7.343-3.004 1.959c-0.478 0.277-0.642 0.891-0.365 1.365 0.275 0.48 0.889 0.645 1.365 0.367l3.305-1.676c0.054 0.008 0.108 0.018 0.165 0.018 0.828 0 1.5-0.671 1.5-1.5l-0.5-7.876C17.002 7.572 16.553 7.124 16.001 7.124zM16.001 22.877c-0.552 0-1 0.447-1 1s0.448 1 1 1 1-0.447 1-1S16.553 22.877 16.001 22.877zM19.439 21.955c-0.479 0.277-0.646 0.889-0.365 1.367 0.273 0.477 0.887 0.643 1.365 0.365 0.479-0.275 0.643-0.896 0.365-1.365C20.527 21.844 19.918 21.68 19.439 21.955z" fill="#000000" data-fill-palette-color="accent"></path></svg></g></svg></g></svg></g><defs></defs></svg><rect width="395.52" height="61.55998789682248" fill="none" stroke="none" visibility="hidden"></rect></g></svg></g></svg>